<svg width="100%" height="100%" viewBox="0 0 241 44" fill="none" xmlns="http://www.w3.org/2000/svg">
<g id="HCI@KAIST" clip-path="url(#clip0_147_1643)">
<path id="Vector" d="M12.3898 2.185C8.27406 5.8773 11.2008 12.2773 16.9627 12.2773C20.8954 12.2773 23.3649 9.97985 23.3649 6.20549C23.3649 3.90805 22.8161 2.75935 21.3527 1.85678C18.5175 0.0516589 14.5848 0.215755 12.3898 2.185ZM19.1577 4.07218C22.4502 6.20549 18.7919 10.9645 15.4079 9.07728C13.2129 7.84651 12.9385 5.95933 14.6762 4.31831C16.5054 2.75935 17.0542 2.67729 19.1577 4.07218Z" fill="black"/>
<path id="Vector_2" d="M0.5 15.3132C0.5 16.8722 1.14022 16.9542 16.9627 16.9542C32.7853 16.9542 33.4255 16.8722 33.4255 15.3132C33.4255 13.7542 32.7853 13.6722 16.9627 13.6722C1.14022 13.6722 0.5 13.7542 0.5 15.3132Z" fill="black"/>
<path id="Vector_3" d="M12.1153 20.8929C9.92033 23.0263 9.82887 42.3903 11.9324 42.3903C12.9385 42.3903 13.3043 41.4057 13.3043 38.2877V34.1852H16.9627H20.621V38.2877C20.621 41.4057 20.9869 42.3903 21.9929 42.3903C23.0905 42.3903 23.3648 41.0775 23.3648 35.416C23.3648 29.016 23.1819 28.4416 21.5356 28.4416C20.5296 28.4416 19.7064 28.7698 19.7064 29.18C19.7064 30.4108 16.7798 30.9852 15.4994 30.0006C14.7677 29.5082 14.2189 27.6213 14.2189 25.8981C14.2189 23.4365 14.5847 22.6981 16.231 22.2057C17.5115 21.8775 18.5175 22.1237 19.2491 23.0263C20.621 24.6673 23.3648 24.7493 23.3648 23.1903C23.3648 19.5801 15.0421 17.9392 12.1153 20.8929Z" fill="black"/>
<path id="Vector_4" d="M42.561 17.4802V1.08691H44.6072V8.37782H53.3148V1.08691H55.3837V17.4802H53.3148V10.1666H44.6072V17.4802H42.561ZM70.2297 6.24942C69.7524 3.98517 67.8085 2.76246 65.6373 2.76246C62.659 2.76246 60.3514 5.04935 60.34 9.28354C60.3514 13.5064 62.659 15.7933 65.6373 15.8046C67.8085 15.7933 69.741 14.5819 70.2297 12.3403H72.2759C71.6847 15.6914 68.9792 17.7065 65.6373 17.7065C61.4085 17.7065 58.3506 14.4687 58.362 9.28354C58.3506 4.09836 61.4085 0.860485 65.6373 0.860485C68.9678 0.860485 71.662 2.84171 72.2759 6.24942H70.2297ZM77.1868 1.08691V17.4802H75.1405V1.08691H77.1868ZM88.7135 14.0385C86.4284 14.0272 84.7802 12.2044 84.7802 9.26091C84.7802 6.33999 86.4628 4.51726 88.7363 4.50594C90.3731 4.51726 91.0438 5.55881 91.3279 6.06827H91.4415V4.68707H93.1696V11.2987C93.2037 12.1818 93.5673 12.6233 94.3062 12.612C95.7158 12.6233 96.6595 10.9817 96.6708 8.6269C96.6936 4.35876 93.59 1.5737 89.2362 1.56239C84.7347 1.58505 81.836 5.04935 81.8246 9.26091C81.8246 13.8687 84.3484 17.0273 89.1453 16.982C90.7367 16.9594 91.7827 16.8575 93.1696 16.4839V18.0237C91.9759 18.3405 90.6458 18.5442 89.1453 18.5442C83.5868 18.5442 80.1764 15.0008 80.1878 9.26091C80.165 3.90592 83.939 6.10352e-05 89.2362 6.10352e-05C94.6701 6.10352e-05 98.3304 3.6795 98.3077 8.55898C98.3191 12.0799 96.5001 14.1291 94.1925 14.1291C92.7602 14.1291 91.6804 13.3253 91.5895 12.2724H91.4415C91.1802 12.7818 90.4867 14.0272 88.7135 14.0385ZM86.5537 9.23825C86.5423 11.0044 87.4289 12.3743 89.009 12.3856C90.6345 12.3743 91.4529 11.1176 91.4643 9.23825C91.4529 7.4042 90.6458 6.17018 89.009 6.15886C87.4176 6.17018 86.5423 7.50608 86.5537 9.23825ZM101.309 17.4802V1.08691H103.355V9.19298H103.559L110.88 1.08691H113.563L106.674 8.49105L113.563 17.4802H111.062L105.401 9.89488L103.355 12.2044V17.4802H101.309ZM116.496 17.4802H114.359L120.383 1.08691H122.543L128.568 17.4802H126.408L124.76 12.8611H118.144L116.496 17.4802ZM118.769 11.0723H124.135L121.52 3.73608H121.384L118.769 11.0723ZM132.842 1.08691V17.4802H130.796V1.08691H132.842ZM145.461 5.20787C145.29 3.60022 143.789 2.6719 141.823 2.6719C139.64 2.6719 138.219 3.80401 138.208 5.36636C138.219 7.08721 140.14 7.7325 141.391 8.0382L143.028 8.49105C144.79 8.94389 147.689 9.95149 147.689 13.0196C147.689 15.6914 145.529 17.7631 141.709 17.7744C138.163 17.7631 135.969 15.9405 135.775 13.2233H137.867C138.037 15.0574 139.754 15.9292 141.709 15.9178C143.983 15.9292 145.688 14.763 145.688 12.9743C145.688 11.378 144.165 10.7666 142.437 10.2798L140.413 9.73639C137.833 8.98919 136.219 7.67592 136.23 5.45693C136.219 2.68321 138.697 0.860485 141.891 0.860485C145.085 0.860485 147.381 2.71716 147.461 5.20787H145.461ZM149.712 2.89832V1.08691H162.125V2.89832H156.964V17.4802H154.896V2.89832H149.712Z" fill="black"/>
<path id="Vector_5" d="M41.7816 41.2183V31.8506H42.9506V40.1832H47.3158V41.2183H41.7816ZM51.694 41.3607C49.6544 41.3671 48.3942 39.9179 48.3942 37.7636C48.3942 35.6028 49.6738 34.1021 51.59 34.1021C53.0711 34.1021 54.6365 35.0077 54.6301 37.6084V38.0741H49.5114C49.5699 39.5621 50.4404 40.3772 51.694 40.3772C52.5385 40.3772 53.0711 40.0085 53.3311 39.5751H54.5262C54.195 40.6425 53.149 41.3671 51.694 41.3607ZM49.5181 37.1298H53.4999C53.4932 35.9586 52.753 35.0853 51.59 35.0853C50.3689 35.0853 49.5959 36.0428 49.5181 37.1298ZM55.7473 39.2257C55.7473 37.6148 57.1766 37.246 58.3977 37.1555C58.8523 37.1232 59.9892 37.0586 60.3073 37.052V36.4828C60.3073 35.5899 59.7749 35.0723 58.7095 35.0723C57.8196 35.0723 57.2805 35.48 57.1245 36.0169H55.9552C56.0982 34.8849 57.2024 34.1021 58.7614 34.1021C59.6837 34.1021 61.4181 34.3737 61.4118 36.5863V41.2183H60.3073V40.2608H60.2555C60.0216 40.733 59.3786 41.38 58.1508 41.3864C56.8127 41.38 55.7473 40.5972 55.7473 39.2257ZM56.8648 39.2776C56.8712 40.0214 57.4884 40.3966 58.3456 40.3902C59.6058 40.3966 60.3073 39.5558 60.3073 38.6695V37.9642C59.9761 37.9836 58.8653 38.0677 58.5277 38.0871C57.5142 38.1519 56.8712 38.5077 56.8648 39.2776ZM65.8678 41.3607C64.1074 41.3671 62.8668 39.9569 62.8668 37.7249C62.8668 35.4993 64.1074 34.1021 65.8809 34.1021C67.2514 34.1021 67.6801 34.9302 67.9204 35.3053H67.9983V31.8506H69.1288V41.2183H68.0374V40.1443H67.9204C67.6738 40.5326 67.2123 41.3671 65.8678 41.3607ZM63.9971 37.699C63.9971 39.1934 64.6855 40.3643 66.0236 40.3643C67.3162 40.3643 68.031 39.2776 68.0374 37.699C68.031 36.14 67.3359 35.0983 66.0236 35.0983C64.6661 35.0983 63.9971 36.2305 63.9971 37.699ZM71.0644 41.2183V34.1926H72.1816V41.2183H71.0644ZM70.8436 32.2905C70.8372 31.8765 71.1944 31.5467 71.6232 31.553C72.0517 31.5467 72.4089 31.8765 72.4156 32.2905C72.4089 32.6982 72.0517 33.0281 71.6232 33.0281C71.1944 33.0281 70.8372 32.6982 70.8436 32.2905ZM75.0787 37.0004V41.2183H73.9615V34.1926H75.0399V35.2923H75.1308C75.462 34.5744 76.1247 34.1021 77.1964 34.1021C78.6254 34.1021 79.5802 34.9688 79.5739 36.7544V41.2183H78.4567V36.832C78.4567 35.7453 77.8591 35.0983 76.8586 35.0983C75.8323 35.0983 75.0787 35.7839 75.0787 37.0004ZM84.2247 44.0001C82.5164 44.0001 81.3601 43.2562 81.2368 41.9558H82.4061C82.5555 42.6738 83.2245 43.0296 84.2247 43.0296C85.4331 43.0296 86.1737 42.5057 86.1737 41.3477V39.9243H86.0825C85.8422 40.3126 85.3941 41.1084 84.0299 41.1148C82.3152 41.1084 81.0289 39.821 81.0289 37.6084C81.0289 35.4477 82.2697 34.1021 84.0429 34.1021C85.4135 34.1021 85.8552 34.9302 86.1086 35.3053H86.1995V34.1926H87.2909V41.4123C87.2842 43.2239 85.9461 44.0001 84.2247 44.0001ZM82.1591 37.6471C82.1591 39.1028 82.8479 40.1186 84.186 40.1186C85.4786 40.1186 86.1931 39.1934 86.1995 37.6471C86.1931 36.14 85.498 35.0983 84.186 35.0983C82.8282 35.0983 82.1591 36.2305 82.1591 37.6471ZM95.4885 34.1926V35.1242H94.0074V39.2C94.001 40.099 94.4556 40.2478 94.9298 40.2478C95.1313 40.2478 95.43 40.2285 95.5924 40.2221V41.2572C95.417 41.2829 95.1443 41.3088 94.8128 41.3088C93.871 41.3088 92.8836 40.7267 92.8772 39.4846V35.1242H91.8118V34.1926H92.8772V32.5105H94.0074V34.1926H95.4885ZM98.2038 37.0004V41.2183H97.0866V31.8506H98.2038V35.2923H98.2947C98.6259 34.5678 99.2561 34.1021 100.373 34.1021C101.815 34.1021 102.777 34.9495 102.777 36.7544V41.2183H101.66V36.832C101.66 35.7259 101.049 35.0983 100.035 35.0983C98.9831 35.0983 98.2038 35.7839 98.2038 37.0004ZM107.532 41.3607C105.492 41.3671 104.232 39.9179 104.232 37.7636C104.232 35.6028 105.511 34.1021 107.428 34.1021C108.909 34.1021 110.474 35.0077 110.468 37.6084V38.0741H105.349C105.408 39.5621 106.278 40.3772 107.532 40.3772C108.376 40.3772 108.909 40.0085 109.168 39.5751H110.364C110.032 40.6425 108.987 41.3671 107.532 41.3607ZM105.355 37.1298H109.338C109.331 35.9586 108.59 35.0853 107.428 35.0853C106.207 35.0853 105.434 36.0428 105.355 37.1298ZM116.846 41.2183L114.703 34.1926H115.885L117.392 39.5492H117.457L118.951 34.1926H120.146L121.615 39.5232H121.692L123.199 34.1926H124.369L122.225 41.2183H121.121L119.588 35.8618H119.484L117.964 41.2183H116.846ZM128.253 41.3607C126.33 41.3671 125.031 39.9179 125.031 37.7379C125.031 35.5446 126.33 34.1021 128.253 34.1021C130.169 34.1021 131.455 35.5446 131.449 37.7379C131.455 39.9179 130.169 41.3671 128.253 41.3607ZM126.149 37.7379C126.155 39.1418 126.818 40.3772 128.253 40.3772C129.676 40.3772 130.332 39.1418 130.332 37.7379C130.332 36.3404 129.676 35.0853 128.253 35.0853C126.818 35.0853 126.155 36.3404 126.149 37.7379ZM132.917 41.2183V34.1926H133.995V35.2666H134.073C134.327 34.5548 135.061 34.0825 135.892 34.0761C136.061 34.0825 136.347 34.0891 136.477 34.1021V35.2277C136.392 35.2084 136.094 35.1502 135.801 35.1502C134.788 35.1502 134.034 35.8488 134.034 36.7933V41.2183H132.917ZM138.685 31.8506V41.2183H137.568V31.8506H138.685ZM143.129 41.3607C141.368 41.3671 140.127 39.9569 140.127 37.7249C140.127 35.4993 141.368 34.1021 143.141 34.1021C144.512 34.1021 144.941 34.9302 145.181 35.3053H145.259V31.8506H146.389V41.2183H145.298V40.1443H145.181C144.934 40.5326 144.473 41.3671 143.129 41.3607ZM141.258 37.699C141.258 39.1934 141.946 40.3643 143.284 40.3643C144.577 40.3643 145.291 39.2776 145.298 37.699C145.291 36.14 144.596 35.0983 143.284 35.0983C141.927 35.0983 141.258 36.2305 141.258 37.699ZM151.664 41.2183V34.1926H152.781V41.2183H151.664ZM151.443 32.2905C151.436 31.8765 151.794 31.5467 152.222 31.553C152.651 31.5467 153.008 31.8765 153.015 32.2905C153.008 32.6982 152.651 33.0281 152.222 33.0281C151.794 33.0281 151.436 32.6982 151.443 32.2905ZM155.678 37.0004V41.2183H154.561V34.1926H155.639V35.2923H155.73C156.062 34.5744 156.724 34.1021 157.796 34.1021C159.225 34.1021 160.18 34.9688 160.173 36.7544V41.2183H159.056V36.832C159.056 35.7453 158.458 35.0983 157.458 35.0983C156.432 35.0983 155.678 35.7839 155.678 37.0004ZM165.448 41.2183V31.8506H166.617V36.0169H171.593V31.8506H172.775V41.2183H171.593V37.039H166.617V41.2183H165.448ZM181.259 34.8007C180.986 33.5067 179.875 32.8081 178.634 32.8081C176.932 32.8081 175.614 34.1151 175.607 36.5344C175.614 38.9474 176.932 40.2544 178.634 40.2608C179.875 40.2544 180.979 39.5621 181.259 38.2811H182.428C182.09 40.1962 180.544 41.3477 178.634 41.3477C176.218 41.3477 174.47 39.4975 174.477 36.5344C174.47 33.5716 176.218 31.7214 178.634 31.7214C180.537 31.7214 182.077 32.8534 182.428 34.8007H181.259ZM185.234 31.8506V41.2183H184.065V31.8506H185.234ZM190.509 41.2183V34.1926H191.587V35.2666H191.665C191.918 34.5548 192.652 34.0825 193.484 34.0761C193.652 34.0825 193.938 34.0891 194.068 34.1021V35.2277C193.984 35.2084 193.685 35.1502 193.393 35.1502C192.379 35.1502 191.626 35.8488 191.626 36.7933V41.2183H190.509ZM197.888 41.3607C195.848 41.3671 194.588 39.9179 194.588 37.7636C194.588 35.6028 195.868 34.1021 197.784 34.1021C199.265 34.1021 200.83 35.0077 200.824 37.6084V38.0741H195.705C195.764 39.5621 196.634 40.3772 197.888 40.3772C198.732 40.3772 199.265 40.0085 199.525 39.5751H200.72C200.389 40.6425 199.343 41.3671 197.888 41.3607ZM195.712 37.1298H199.693C199.687 35.9586 198.946 35.0853 197.784 35.0853C196.562 35.0853 195.789 36.0428 195.712 37.1298ZM206.202 36.0169C206.046 35.4347 205.598 35.053 204.773 35.0467C203.903 35.053 203.286 35.5189 203.279 36.1074C203.286 36.5733 203.663 36.8902 204.487 37.0909L205.54 37.3495C206.8 37.6471 207.417 38.2748 207.423 39.2516C207.417 40.4678 206.423 41.3671 204.656 41.3607C203.071 41.3671 202.129 40.6618 201.941 39.3811H203.11C203.24 40.0667 203.74 40.3966 204.63 40.3902C205.637 40.3966 206.267 39.9762 206.267 39.3162C206.267 38.8182 205.91 38.4948 205.111 38.3071L204.046 38.0611C202.818 37.7765 202.162 37.1102 202.162 36.1723C202.162 34.9688 203.221 34.1021 204.773 34.1021C206.235 34.1021 207.151 34.8783 207.293 36.0169H206.202ZM211.84 41.3607C209.801 41.3671 208.541 39.9179 208.541 37.7636C208.541 35.6028 209.82 34.1021 211.737 34.1021C213.218 34.1021 214.783 35.0077 214.777 37.6084V38.0741H209.658C209.716 39.5621 210.587 40.3772 211.84 40.3772C212.685 40.3772 213.218 40.0085 213.478 39.5751H214.673C214.341 40.6425 213.296 41.3671 211.84 41.3607ZM209.665 37.1298H213.646C213.64 35.9586 212.899 35.0853 211.737 35.0853C210.515 35.0853 209.742 36.0428 209.665 37.1298ZM215.894 39.2257C215.894 37.6148 217.323 37.246 218.544 37.1555C218.999 37.1232 220.136 37.0586 220.454 37.052V36.4828C220.454 35.5899 219.921 35.0723 218.856 35.0723C217.966 35.0723 217.427 35.48 217.271 36.0169H216.102C216.245 34.8849 217.349 34.1021 218.908 34.1021C219.83 34.1021 221.565 34.3737 221.558 36.5863V41.2183H220.454V40.2608H220.402C220.168 40.733 219.525 41.38 218.297 41.3864C216.959 41.38 215.894 40.5972 215.894 39.2257ZM217.011 39.2776C217.018 40.0214 217.635 40.3966 218.492 40.3902C219.752 40.3966 220.454 39.5558 220.454 38.6695V37.9642C220.123 37.9836 219.012 38.0677 218.674 38.0871C217.661 38.1519 217.018 38.5077 217.011 39.2776ZM223.351 41.2183V34.1926H224.429V35.2666H224.507C224.761 34.5548 225.495 34.0825 226.326 34.0761C226.495 34.0825 226.781 34.0891 226.911 34.1021V35.2277C226.826 35.2084 226.528 35.1502 226.235 35.1502C225.222 35.1502 224.468 35.8488 224.468 36.7933V41.2183H223.351ZM230.652 41.3607C228.652 41.3671 227.43 39.8467 227.43 37.7379C227.43 35.6028 228.71 34.1021 230.626 34.1021C232.127 34.1021 233.257 34.9884 233.433 36.3144H232.315C232.153 35.6741 231.594 35.0853 230.652 35.0853C229.392 35.0853 228.554 36.1204 228.548 37.699C228.554 39.3228 229.373 40.3643 230.652 40.3643C231.484 40.3643 232.12 39.9179 232.315 39.1481H233.433C233.257 40.4032 232.218 41.3671 230.652 41.3607ZM235.927 37.0004V41.2183H234.809V31.8506H235.927V35.2923H236.018C236.349 34.5678 236.979 34.1021 238.096 34.1021C239.539 34.1021 240.5 34.9495 240.5 36.7544V41.2183H239.382V36.832C239.382 35.7259 238.772 35.0983 237.759 35.0983C236.706 35.0983 235.927 35.7839 235.927 37.0004Z" fill="black"/>
</g>
<defs>
<clipPath id="clip0_147_1643">
<rect width="240" height="44" fill="white" transform="translate(0.5)"/>
</clipPath>
</defs>
</svg>
