<svg width="100%" height="100%" viewBox="0 0 255 56" fill="none" xmlns="http://www.w3.org/2000/svg">
<g id="KAIST SoC">
<path id="Vector" d="M65.7637 32.3988H71.9288V9.251H65.7637V32.3988ZM98.7096 9.25V14.0735H106.465V32.3988H112.628V14.0735H120.382V9.25H98.7096ZM90.1229 18.4132H84.9708C83.6013 18.4132 82.4941 17.848 82.4941 16.2436C82.4941 14.6341 83.6013 14.073 84.9708 14.073H96.0488V9.25047H84.2406C79.8329 9.25047 76.2571 11.7901 76.2571 16.2435C76.2571 20.696 79.8329 23.2356 84.2406 23.2356H89.5415C90.908 23.2356 92.0181 23.7997 92.0181 25.4093C92.0181 27.0147 90.908 27.5767 89.5415 27.5767H77.112V32.3993H90.1229C94.5336 32.3993 98.1044 29.8638 98.1044 25.4093C98.1044 20.9608 94.5336 18.4132 90.1229 18.4132ZM46.9975 9.25L38.2786 30.0795L29.967 20.8259L40.3594 9.25H33.3201L23.4708 20.2395V9.25H17.3047V32.3988H23.4708V21.4103L33.3201 32.3988H43.5725L50.6322 14.942L55.76 27.7745H47.6095L49.5463 32.399H63.9571L54.2668 9.25H46.9975Z" fill="#1F4899"/>
<path id="Vector_2" d="M3.00494 42.1198C24.5127 45.1718 46.4945 46.75 68.8453 46.75C91.1948 46.75 113.176 45.1718 134.681 42.1198C113.176 39.0715 91.1948 37.4922 68.8453 37.4922C46.4945 37.4922 24.5127 39.0715 3.00494 42.1198Z" fill="url(#paint0_linear_147_1639)"/>
<path id="Vector_3" d="M147.408 11.5454C147.319 10.7898 146.955 10.2031 146.317 9.78548C145.68 9.36788 144.898 9.15908 143.971 9.15908C143.294 9.15908 142.701 9.26845 142.193 9.4872C141.689 9.70595 141.296 10.0067 141.012 10.3895C140.733 10.7724 140.594 11.2074 140.594 11.6946C140.594 12.1023 140.691 12.4528 140.885 12.7461C141.084 13.0344 141.338 13.2756 141.647 13.4694C141.956 13.6584 142.28 13.815 142.619 13.9393C142.957 14.0586 143.269 14.1555 143.553 14.2301L145.107 14.6477C145.505 14.7521 145.949 14.8963 146.437 15.0802C146.93 15.2642 147.401 15.5153 147.849 15.8334C148.302 16.1466 148.676 16.5493 148.97 17.0415C149.264 17.5337 149.411 18.1378 149.411 18.8537C149.411 19.679 149.194 20.4247 148.761 21.0909C148.332 21.7571 147.705 22.2866 146.878 22.6793C146.056 23.0721 145.057 23.2685 143.881 23.2685C142.785 23.2685 141.836 23.092 141.034 22.739C140.238 22.386 139.61 21.8938 139.151 21.2624C138.698 20.631 138.442 19.8977 138.382 19.0625H140.295C140.345 19.6392 140.539 20.1165 140.878 20.4943C141.221 20.8672 141.655 21.1456 142.178 21.3295C142.706 21.5085 143.274 21.598 143.881 21.598C144.589 21.598 145.224 21.4837 145.787 21.255C146.35 21.0213 146.796 20.6981 147.124 20.2855C147.453 19.8679 147.617 19.3807 147.617 18.8239C147.617 18.3167 147.475 17.9041 147.192 17.5859C146.907 17.2677 146.534 17.0092 146.071 16.8104C145.607 16.6115 145.107 16.4375 144.569 16.2883L142.686 15.7514C141.49 15.4084 140.544 14.9187 139.847 14.2823C139.149 13.6459 138.8 12.8132 138.8 11.7841C138.8 10.929 139.032 10.1832 139.495 9.54685C139.964 8.90553 140.591 8.40835 141.378 8.05538C142.17 7.69743 143.054 7.51845 144.031 7.51845C145.017 7.51845 145.894 7.69493 146.661 8.04793C147.428 8.39593 148.036 8.8732 148.484 9.47973C148.937 10.0863 149.177 10.7748 149.201 11.5454H147.408ZM156.881 23.2386C155.805 23.2386 154.878 22.9851 154.101 22.478C153.324 21.9709 152.726 21.2724 152.308 20.3824C151.89 19.4925 151.68 18.4758 151.68 17.3324C151.68 16.169 151.895 15.1424 152.323 14.2525C152.756 13.3576 153.359 12.6591 154.131 12.1569C154.908 11.6498 155.815 11.3963 156.851 11.3963C157.658 11.3963 158.385 11.5454 159.033 11.8437C159.681 12.142 160.211 12.5596 160.624 13.0966C161.038 13.6335 161.295 14.2599 161.394 14.9758H159.631C159.496 14.4538 159.197 13.9915 158.734 13.5888C158.276 13.1811 157.658 12.9773 156.881 12.9773C156.194 12.9773 155.591 13.1562 155.073 13.5142C154.56 13.8672 154.159 14.3668 153.87 15.0131C153.586 15.6545 153.444 16.4077 153.444 17.2727C153.444 18.1577 153.583 18.9283 153.862 19.5845C154.146 20.2408 154.545 20.7503 155.058 21.1133C155.576 21.4762 156.183 21.6577 156.881 21.6577C157.339 21.6577 157.755 21.5781 158.129 21.419C158.502 21.2599 158.819 21.0312 159.078 20.7329C159.337 20.4346 159.521 20.0767 159.631 19.6591H161.394C161.295 20.3352 161.048 20.9442 160.654 21.4861C160.266 22.0231 159.75 22.4506 159.108 22.7688C158.47 23.082 157.728 23.2386 156.881 23.2386ZM165.735 16.1094V23H163.972V7.72725H165.735V13.3352H165.885C166.154 12.7436 166.557 12.2738 167.095 11.9258C167.638 11.5728 168.361 11.3963 169.262 11.3963C170.044 11.3963 170.729 11.5529 171.317 11.8661C171.905 12.1743 172.361 12.6491 172.684 13.2905C173.013 13.9268 173.178 14.7372 173.178 15.7216V23H171.414V15.8409C171.414 14.9311 171.178 14.2276 170.704 13.7305C170.236 13.2283 169.586 12.9773 168.754 12.9773C168.176 12.9773 167.658 13.0991 167.2 13.3427C166.747 13.5863 166.388 13.9417 166.124 14.4091C165.865 14.8764 165.735 15.4432 165.735 16.1094ZM181.066 23.2386C180.03 23.2386 179.121 22.9925 178.339 22.5003C177.562 22.0082 176.954 21.3196 176.516 20.4346C176.082 19.5497 175.866 18.5156 175.866 17.3324C175.866 16.1392 176.082 15.0976 176.516 14.2077C176.954 13.3178 177.562 12.6268 178.339 12.1346C179.121 11.6424 180.03 11.3963 181.066 11.3963C182.103 11.3963 183.009 11.6424 183.786 12.1346C184.568 12.6268 185.176 13.3178 185.609 14.2077C186.048 15.0976 186.267 16.1392 186.267 17.3324C186.267 18.5156 186.048 19.5497 185.609 20.4346C185.176 21.3196 184.568 22.0082 183.786 22.5003C183.009 22.9925 182.103 23.2386 181.066 23.2386ZM181.066 21.6577C181.853 21.6577 182.501 21.4563 183.009 21.0536C183.517 20.6509 183.893 20.1214 184.137 19.4652C184.382 18.8089 184.503 18.098 184.503 17.3324C184.503 16.5667 184.382 15.8533 184.137 15.1921C183.893 14.5309 183.517 13.9964 183.009 13.5888C182.501 13.1811 181.853 12.9773 181.066 12.9773C180.279 12.9773 179.632 13.1811 179.124 13.5888C178.615 13.9964 178.239 14.5309 177.995 15.1921C177.751 15.8533 177.629 16.5667 177.629 17.3324C177.629 18.098 177.751 18.8089 177.995 19.4652C178.239 20.1214 178.615 20.6509 179.124 21.0536C179.632 21.4563 180.279 21.6577 181.066 21.6577ZM193.621 23.2386C192.585 23.2386 191.676 22.9925 190.894 22.5003C190.117 22.0082 189.509 21.3196 189.071 20.4346C188.637 19.5497 188.421 18.5156 188.421 17.3324C188.421 16.1392 188.637 15.0976 189.071 14.2077C189.509 13.3178 190.117 12.6268 190.894 12.1346C191.676 11.6424 192.585 11.3963 193.621 11.3963C194.657 11.3963 195.564 11.6424 196.341 12.1346C197.123 12.6268 197.731 13.3178 198.164 14.2077C198.603 15.0976 198.822 16.1392 198.822 17.3324C198.822 18.5156 198.603 19.5497 198.164 20.4346C197.731 21.3196 197.123 22.0082 196.341 22.5003C195.564 22.9925 194.657 23.2386 193.621 23.2386ZM193.621 21.6577C194.408 21.6577 195.056 21.4563 195.564 21.0536C196.072 20.6509 196.448 20.1214 196.692 19.4652C196.936 18.8089 197.058 18.098 197.058 17.3324C197.058 16.5667 196.936 15.8533 196.692 15.1921C196.448 14.5309 196.072 13.9964 195.564 13.5888C195.056 13.1811 194.408 12.9773 193.621 12.9773C192.834 12.9773 192.187 13.1811 191.679 13.5888C191.17 13.9964 190.794 14.5309 190.55 15.1921C190.306 15.8533 190.184 16.5667 190.184 17.3324C190.184 18.098 190.306 18.8089 190.55 19.4652C190.794 20.1214 191.17 20.6509 191.679 21.0536C192.187 21.4563 192.834 21.6577 193.621 21.6577ZM203.277 7.72725V23H201.514V7.72725H203.277ZM217.087 23.2386C216.051 23.2386 215.142 22.9925 214.36 22.5003C213.583 22.0082 212.975 21.3196 212.537 20.4346C212.104 19.5497 211.887 18.5156 211.887 17.3324C211.887 16.1392 212.104 15.0976 212.537 14.2077C212.975 13.3178 213.583 12.6268 214.36 12.1346C215.142 11.6424 216.051 11.3963 217.087 11.3963C218.123 11.3963 219.03 11.6424 219.807 12.1346C220.589 12.6268 221.197 13.3178 221.63 14.2077C222.069 15.0976 222.288 16.1392 222.288 17.3324C222.288 18.5156 222.069 19.5497 221.63 20.4346C221.197 21.3196 220.589 22.0082 219.807 22.5003C219.03 22.9925 218.123 23.2386 217.087 23.2386ZM217.087 21.6577C217.874 21.6577 218.522 21.4563 219.03 21.0536C219.538 20.6509 219.914 20.1214 220.158 19.4652C220.402 18.8089 220.525 18.098 220.525 17.3324C220.525 16.5667 220.402 15.8533 220.158 15.1921C219.914 14.5309 219.538 13.9964 219.03 13.5888C218.522 13.1811 217.874 12.9773 217.087 12.9773C216.3 12.9773 215.653 13.1811 215.145 13.5888C214.637 13.9964 214.26 14.5309 214.016 15.1921C213.772 15.8533 213.65 16.5667 213.65 17.3324C213.65 18.098 213.772 18.8089 214.016 19.4652C214.26 20.1214 214.637 20.6509 215.145 21.0536C215.653 21.4563 216.3 21.6577 217.087 21.6577ZM230.091 11.5454V13.0369H223.904V11.5454H230.091ZM225.757 23V9.96448C225.757 9.30823 225.911 8.76135 226.22 8.32385C226.529 7.88635 226.93 7.55823 227.423 7.33948C227.916 7.12073 228.437 7.01135 228.985 7.01135C229.418 7.01135 229.772 7.04615 230.046 7.11575C230.32 7.18535 230.524 7.24998 230.659 7.30963L230.15 8.83095C230.061 8.8011 229.936 8.76383 229.777 8.71908C229.623 8.67433 229.418 8.65198 229.164 8.65198C228.581 8.65198 228.16 8.79863 227.901 9.09195C227.647 9.38528 227.52 9.81533 227.52 10.3821V23H225.757ZM152.019 38.5742H148.746C148.686 38.1517 148.564 37.7762 148.38 37.4482C148.195 37.115 147.959 36.8317 147.67 36.598C147.381 36.3642 147.047 36.1852 146.669 36.061C146.295 35.9367 145.889 35.8747 145.451 35.8747C144.659 35.8747 143.968 36.071 143.381 36.4637C142.793 36.8515 142.337 37.4182 142.013 38.164C141.689 38.9047 141.528 39.8047 141.528 40.8637C141.528 41.9525 141.689 42.8672 142.013 43.608C142.342 44.3487 142.8 44.908 143.388 45.2857C143.976 45.6637 144.656 45.8527 145.428 45.8527C145.861 45.8527 146.262 45.7955 146.631 45.681C147.005 45.5667 147.336 45.4002 147.625 45.1815C147.914 44.9577 148.153 44.6867 148.342 44.3685C148.536 44.0505 148.671 43.6875 148.746 43.2797L152.019 43.2947C151.934 43.9957 151.722 44.672 151.383 45.3232C151.05 45.9695 150.599 46.5487 150.031 47.0607C149.468 47.5677 148.795 47.9705 148.013 48.2687C147.236 48.5622 146.357 48.7087 145.376 48.7087C144.011 48.7087 142.79 48.4005 141.714 47.784C140.643 47.1675 139.797 46.2752 139.174 45.107C138.556 43.9385 138.247 42.5242 138.247 40.8637C138.247 39.1982 138.561 37.7812 139.189 36.613C139.817 35.4445 140.668 34.5547 141.744 33.9432C142.82 33.3267 144.031 33.0185 145.376 33.0185C146.262 33.0185 147.084 33.1427 147.842 33.3912C148.604 33.64 149.279 34.0027 149.867 34.48C150.454 34.9525 150.933 35.5315 151.301 36.2177C151.675 36.9037 151.914 37.6892 152.019 38.5742ZM159.464 48.7237C158.304 48.7237 157.3 48.4777 156.453 47.9855C155.611 47.4882 154.961 46.7972 154.503 45.9122C154.045 45.0222 153.816 43.9907 153.816 42.8175C153.816 41.6342 154.045 40.6002 154.503 39.7152C154.961 38.8252 155.611 38.1342 156.453 37.642C157.3 37.145 158.304 36.8962 159.464 36.8962C160.625 36.8962 161.626 37.145 162.468 37.642C163.315 38.1342 163.968 38.8252 164.426 39.7152C164.884 40.6002 165.113 41.6342 165.113 42.8175C165.113 43.9907 164.884 45.0222 164.426 45.9122C163.968 46.7972 163.315 47.4882 162.468 47.9855C161.626 48.4777 160.625 48.7237 159.464 48.7237ZM159.479 46.2627C160.008 46.2627 160.448 46.1137 160.802 45.8152C161.156 45.512 161.422 45.0995 161.601 44.5775C161.786 44.0555 161.878 43.4612 161.878 42.795C161.878 42.129 161.786 41.5347 161.601 41.0127C161.422 40.4907 161.156 40.078 160.802 39.7747C160.448 39.4715 160.008 39.32 159.479 39.32C158.946 39.32 158.498 39.4715 158.134 39.7747C157.776 40.078 157.504 40.4907 157.32 41.0127C157.141 41.5347 157.051 42.129 157.051 42.795C157.051 43.4612 157.141 44.0555 157.32 44.5775C157.504 45.0995 157.776 45.512 158.134 45.8152C158.498 46.1137 158.946 46.2627 159.479 46.2627ZM167.183 48.5V37.0455H170.217V39.0665H170.351C170.59 38.3952 170.989 37.8657 171.547 37.478C172.105 37.0902 172.772 36.8962 173.549 36.8962C174.336 36.8962 175.006 37.0927 175.559 37.4855C176.112 37.8732 176.481 38.4002 176.665 39.0665H176.785C177.019 38.4102 177.442 37.8857 178.055 37.493C178.673 37.0952 179.402 36.8962 180.244 36.8962C181.315 36.8962 182.185 37.2367 182.852 37.918C183.525 38.594 183.861 39.5535 183.861 40.7965V48.5H180.685V41.423C180.685 40.7865 180.516 40.3092 180.177 39.991C179.838 39.673 179.415 39.5137 178.907 39.5137C178.329 39.5137 177.878 39.6977 177.554 40.0657C177.231 40.4285 177.069 40.9085 177.069 41.505V48.5H173.983V41.3557C173.983 40.794 173.821 40.3465 173.497 40.0135C173.178 39.6805 172.757 39.5137 172.234 39.5137C171.881 39.5137 171.562 39.6032 171.278 39.7822C170.999 39.9562 170.777 40.2025 170.613 40.5205C170.448 40.8337 170.366 41.2017 170.366 41.6242V48.5H167.183ZM186.375 52.7955V37.0455H189.513V38.9695H189.655C189.795 38.6612 189.997 38.348 190.261 38.0297C190.53 37.7067 190.878 37.4382 191.307 37.2245C191.74 37.0057 192.278 36.8962 192.921 36.8962C193.758 36.8962 194.53 37.115 195.237 37.5525C195.945 37.985 196.51 38.6387 196.933 39.5137C197.357 40.384 197.568 41.4752 197.568 42.7877C197.568 44.0652 197.362 45.1442 196.948 46.0242C196.54 46.8992 195.982 47.5627 195.274 48.0152C194.572 48.4627 193.785 48.6865 192.913 48.6865C192.296 48.6865 191.77 48.5845 191.337 48.3807C190.908 48.1767 190.557 47.9207 190.283 47.6125C190.009 47.2992 189.8 46.9837 189.655 46.6655H189.558V52.7955H186.375ZM189.491 42.7727C189.491 43.4537 189.586 44.048 189.775 44.555C189.964 45.0622 190.238 45.4575 190.597 45.7407C190.956 46.0192 191.392 46.1585 191.905 46.1585C192.423 46.1585 192.861 46.0167 193.22 45.7332C193.578 45.445 193.85 45.0472 194.034 44.5402C194.223 44.028 194.318 43.439 194.318 42.7727C194.318 42.1115 194.226 41.5297 194.042 41.0277C193.857 40.5255 193.586 40.1327 193.227 39.8495C192.868 39.566 192.428 39.4242 191.905 39.4242C191.387 39.4242 190.948 39.561 190.589 39.8345C190.236 40.108 189.964 40.4957 189.775 40.9977C189.586 41.5 189.491 42.0915 189.491 42.7727ZM207.05 43.6227V37.0455H210.234V48.5H207.178V46.4195H207.058C206.799 47.0905 206.368 47.63 205.765 48.0377C205.167 48.4452 204.438 48.6492 203.576 48.6492C202.809 48.6492 202.134 48.4752 201.551 48.1272C200.968 47.779 200.512 47.2845 200.184 46.643C199.86 46.0017 199.695 45.2337 199.69 44.3387V37.0455H202.874V43.772C202.879 44.4482 203.06 44.9825 203.419 45.3752C203.778 45.768 204.258 45.9645 204.861 45.9645C205.245 45.9645 205.603 45.8775 205.937 45.7035C206.271 45.5245 206.54 45.261 206.744 44.913C206.953 44.565 207.055 44.135 207.05 43.6227ZM218.884 37.0455V39.4317H211.973V37.0455H218.884ZM213.542 34.3012H216.725V44.98C216.725 45.2735 216.77 45.5022 216.859 45.6662C216.949 45.8252 217.074 45.9372 217.233 46.0017C217.397 46.0665 217.587 46.0987 217.801 46.0987C217.95 46.0987 218.1 46.0862 218.249 46.0615C218.399 46.0315 218.513 46.0092 218.593 45.9942L219.094 48.3582C218.934 48.408 218.71 48.4652 218.421 48.5297C218.132 48.5995 217.781 48.6417 217.368 48.6565C216.6 48.6865 215.928 48.5845 215.35 48.3507C214.777 48.1172 214.331 47.7542 214.013 47.262C213.694 46.77 213.537 46.1485 213.542 45.3977V34.3012ZM220.958 48.5V37.0455H224.141V48.5H220.958ZM222.557 35.569C222.084 35.569 221.678 35.4122 221.339 35.099C221.005 34.781 220.838 34.4005 220.838 33.958C220.838 33.5205 221.005 33.1452 221.339 32.832C221.678 32.5137 222.084 32.3547 222.557 32.3547C223.03 32.3547 223.434 32.5137 223.768 32.832C224.106 33.1452 224.276 33.5205 224.276 33.958C224.276 34.4005 224.106 34.781 223.768 35.099C223.434 35.4122 223.03 35.569 222.557 35.569ZM229.874 41.8777V48.5H226.691V37.0455H229.725V39.0665H229.859C230.113 38.4002 230.539 37.8732 231.137 37.4855C231.734 37.0927 232.459 36.8962 233.311 36.8962C234.108 36.8962 234.803 37.0702 235.396 37.4182C235.989 37.7662 236.45 38.2635 236.778 38.9097C237.107 39.5512 237.271 40.3167 237.271 41.2067V48.5H234.088V41.7735C234.093 41.0725 233.914 40.5255 233.55 40.1327C233.187 39.735 232.686 39.5362 232.048 39.5362C231.62 39.5362 231.241 39.6282 230.913 39.8122C230.589 39.996 230.335 40.2645 230.15 40.6175C229.971 40.9655 229.879 41.3857 229.874 41.8777ZM244.951 53.034C243.92 53.034 243.035 52.8925 242.298 52.609C241.566 52.3305 240.983 51.9502 240.55 51.468C240.116 50.9857 239.835 50.444 239.705 49.8422L242.649 49.447C242.739 49.6757 242.881 49.8895 243.075 50.0885C243.27 50.2872 243.526 50.4465 243.845 50.5657C244.169 50.69 244.562 50.7522 245.026 50.7522C245.718 50.7522 246.288 50.583 246.737 50.245C247.19 49.912 247.417 49.3527 247.417 48.567V46.4715H247.282C247.143 46.7897 246.933 47.0905 246.654 47.374C246.376 47.6572 246.017 47.8885 245.578 48.0675C245.14 48.2465 244.617 48.336 244.009 48.336C243.147 48.336 242.363 48.137 241.656 47.7392C240.953 47.3367 240.393 46.7227 239.974 45.8972C239.561 45.067 239.354 44.018 239.354 42.7502C239.354 41.4527 239.566 40.369 239.989 39.499C240.413 38.629 240.976 37.9777 241.678 37.545C242.385 37.1125 243.16 36.8962 244.002 36.8962C244.644 36.8962 245.182 37.0057 245.616 37.2245C246.049 37.4382 246.398 37.7067 246.662 38.0297C246.931 38.348 247.138 38.6612 247.282 38.9695H247.402V37.0455H250.562V48.6117C250.562 49.5862 250.323 50.4017 249.845 51.058C249.367 51.7142 248.704 52.2062 247.857 52.5345C247.016 52.8675 246.047 53.034 244.951 53.034ZM245.018 45.9495C245.531 45.9495 245.964 45.8227 246.318 45.5692C246.677 45.3107 246.951 44.9427 247.14 44.4655C247.334 43.9832 247.432 43.4065 247.432 42.7355C247.432 42.0642 247.337 41.4825 247.148 40.9905C246.958 40.4932 246.684 40.108 246.326 39.8345C245.967 39.561 245.531 39.4242 245.018 39.4242C244.495 39.4242 244.054 39.566 243.696 39.8495C243.337 40.1277 243.065 40.5155 242.881 41.0127C242.697 41.51 242.605 42.0842 242.605 42.7355C242.605 43.3967 242.697 43.9685 242.881 44.4507C243.07 44.928 243.342 45.2982 243.696 45.5617C244.054 45.8202 244.495 45.9495 245.018 45.9495Z" fill="#1F4899"/>
</g>
<defs>
<linearGradient id="paint0_linear_147_1639" x1="3.03433" y1="42.1612" x2="134.711" y2="42.1612" gradientUnits="userSpaceOnUse">
<stop stop-color="#69C5F0"/>
<stop offset="0.05" stop-color="#69C5F0"/>
<stop offset="0.3816" stop-color="#3F88D0"/>
<stop offset="0.5" stop-color="#3F88D0"/>
<stop offset="0.7316" stop-color="#2C61B5"/>
<stop offset="0.95" stop-color="#2C61B5"/>
<stop offset="1" stop-color="#2C61B5"/>
</linearGradient>
</defs>
</svg>
